<svg width="1000" height="1000" viewBox="0 0 1000 1000" fill="none" xmlns="http://www.w3.org/2000/svg">
<g clip-path="url(#clip0_89_143)">
<rect width="1000" height="1000" fill="white"/>
<rect width="1000" height="1000" rx="75" fill="black"/>
<path d="M730 440C735.523 440 740 444.477 740 450V790C740 795.523 735.523 800 730 800H510C504.477 800 500 795.523 500 790V570C500 564.477 495.523 560 490 560H270C264.477 560 260 555.523 260 550V210C260 204.477 264.477 200 270 200H730C735.523 200 740 204.477 740 210V310C740 315.523 735.523 320 730 320H390C384.477 320 380 324.477 380 330V430C380 435.523 384.477 440 390 440H730ZM260 690C260 684.477 264.477 680 270 680H370C375.523 680 380 684.477 380 690V790C380 795.523 375.523 800 370 800H270C264.477 800 260 795.523 260 790V690Z" fill="white"/>
</g>
<defs>
<clipPath id="clip0_89_143">
<rect width="1000" height="1000" fill="white"/>
</clipPath>
</defs>
</svg>
